<?xml version="1.0" encoding="UTF-8"?>
<svg width="15px" height="15px" viewBox="0 0 15 15" version="1.1" xmlns="http://www.w3.org/2000/svg" xmlns:xlink="http://www.w3.org/1999/xlink">
    <title>pencil</title>
    <g id="Page-1" stroke="none" stroke-width="1" fill="none" fill-rule="evenodd">
        <g id="pencil" fill="#ffffff" fill-rule="nonzero">
            <path d="M12.679,0.60187506 L14.381,2.30587506 C15.207,3.13287506 15.207,4.47787506 14.381,5.3058751 L6.211,13.4858751 L8.8817842e-16,14.9998751 L1.512,8.7818751 L9.682,0.60187506 C10.481,-0.20012494 11.878,-0.20112494 12.679,0.60187506 Z M4.66091072,11.0462125 L5.973,12.3598751 L11.625,6.7018751 L8.289,3.36087506 L2.637,9.0198751 L3.95422762,10.3386821 L7.1467061,7.1463747 C7.3419735,6.9511178 7.6585559,6.9511262 7.8538129,7.1463936 C8.0490698,7.341661 8.0490613,7.6582435 7.8537939,7.8535004 L4.66091072,11.0462125 Z M12.306,6.0198751 L13.7,4.62387506 C14.15,4.17287506 14.15,3.43787506 13.7,2.98687506 L11.998,1.28287506 C11.561,0.84587506 10.801,0.84687506 10.364,1.28287506 L8.97,2.67887506 L12.306,6.0198751 Z M1.426,13.5738751 L4.995,12.7438751 L2.254,9.9988751 L1.426,13.5738751 Z" id="Shape"></path>
        </g>
    </g>
</svg>