<?xml version="1.0" encoding="UTF-8"?>
<svg width="15px" height="17px" viewBox="0 0 15 17" version="1.1" xmlns="http://www.w3.org/2000/svg" xmlns:xlink="http://www.w3.org/1999/xlink">
    <title>bell</title>
    <g id="Page-1" stroke="none" stroke-width="1" fill="none" fill-rule="evenodd">
        <g id="bell" fill="#000000" fill-rule="nonzero">
            <path d="M7.5,0 C8.3284271,0 9,0.67157288 9,1.5 L9,2.208 L9.1928659,2.26644975 C11.4021227,2.9794161 13,5.05310592 13,7.5 L13,10.381966 C13,11.0636597 13.5141144,11.4674835 13.7236068,11.5527864 C14.6312256,12.0112457 15,12.8789673 15,13.618034 L15,14 C15,14.5522512 14.5522511,14.9999525 14,15.000086 L9.9499027,15.0004345 L9.9499027,15.0004345 C9.7180997,16.1413382 8.7093254,17 7.5,17 C6.2906746,17 5.28190033,16.1413382 5.05009729,15.0004345 L1,15.000086 C0.44774885,14.9999525 0,14.5522512 0,14 L0,13.618034 L0,13.618034 C0,12.8017489 0.4304466,12.0508527 1.12384427,11.6363588 C1.70794809,11.3546774 2,10.9365465 2,10.381966 L2,7.5 C2,4.98221115 3.69181046,2.85956581 6.0006454,2.20685 L6,1.5 C6,0.67157288 6.6715729,0 7.5,0 Z M8.9143985,15.000703 L6.0856015,15.000703 C6.2917181,15.5829319 6.8471533,16 7.5,16 C8.1528467,16 8.7082819,15.5829319 8.9143985,15.000703 Z M7.5,1 C7.2238576,1 7,1.22385763 7,1.5 L7.000297,3.02743156 C4.7501788,3.27601865 3,5.18362124 3,7.5 L3,10.381966 C3,11.1982511 2.5695534,11.9491473 1.87615573,12.3636412 L1.7609788,12.4232259 C1.47658468,12.5798721 1,12.9239115 1,13.618034 L1,14 L14,14 L14,13.618034 C14,12.9215546 13.5177307,12.5793152 13.2763932,12.4472136 C12.5953522,12.1302643 12,11.3188477 12,10.381966 L12,7.5 C12,5.18396594 10.2503421,3.2765864 8.0007074,3.02754265 L8,1.5 C8,1.22385763 7.7761424,1 7.5,1 Z" id="Shape"></path>
        </g>
    </g>
</svg>