<?xml version="1.0" encoding="UTF-8"?>
<svg width="16px" height="15px" viewBox="0 0 16 15" version="1.1" xmlns="http://www.w3.org/2000/svg" xmlns:xlink="http://www.w3.org/1999/xlink">
    <title>notifications</title>
    <g id="Page-1" stroke="none" stroke-width="1" fill="none" fill-rule="evenodd">
        <g id="notifications" fill="#000000" fill-rule="nonzero">
            <path d="M14,0 C15.1045695,0 16,0.8954305 16,2 L16,10 C16,11.1045695 15.1045695,12 14,12 L8,12 L4.62469505,14.700244 C4.19343311,15.0452535 3.56414074,14.9753321 3.21913119,14.5440702 C3.07728075,14.3667572 3,14.1464466 3,13.9193752 L3,12 L2,12 C0.8954305,12 0,11.1045695 0,10 L0,2 C0,0.8954305 0.8954305,0 2,0 L14,0 Z M14,1 L2,1 C1.48716416,1 1.06449284,1.38604019 1.00672773,1.88337887 L1,2 L1,10 C1,10.5128358 1.38604019,10.9355072 1.88337887,10.9932723 L2,11 L4,11 L4,13.9193752 L7.6492189,11 L14,11 C14.5128358,11 14.9355072,10.6139598 14.9932723,10.1166211 L15,10 L15,2 C15,1.48716416 14.6139598,1.06449284 14.1166211,1.00672773 L14,1 Z" id="Shape"></path>
        </g>
    </g>
</svg>