<?xml version="1.0" encoding="UTF-8"?>
<svg width="14px" height="14px" viewBox="0 0 14 14" version="1.1" xmlns="http://www.w3.org/2000/svg" xmlns:xlink="http://www.w3.org/1999/xlink">
    <title>search</title>
    <g id="Page-1" stroke="none" stroke-width="1" fill="none" fill-rule="evenodd">
        <g id="search" transform="translate(0.250000, 0.250000)" fill="currentColor" fill-rule="nonzero">
            <path d="M12.640165,12.1098349 C12.7866116,12.2562816 12.7866116,12.4937184 12.640165,12.640165 C12.4937184,12.7866116 12.2562816,12.7866116 12.1098349,12.640165 L9.32851643,9.85884652 C8.33908035,10.7250516 7.04334427,11.25 5.625,11.25 C2.51839828,11.25 0,8.7316017 0,5.625 C0,2.51839828 2.51839828,0 5.625,0 C8.7316017,0 11.25,2.51839828 11.25,5.625 C11.25,7.04334427 10.7250516,8.33908035 9.85884652,9.32851643 L12.640165,12.1098349 Z M10.5,5.625 C10.5,2.93261185 8.31738818,0.75 5.625,0.75 C2.93261185,0.75 0.75,2.93261185 0.75,5.625 C0.75,8.31738818 2.93261185,10.5 5.625,10.5 C8.31738818,10.5 10.5,8.31738818 10.5,5.625 Z" id="Shape"></path>
        </g>
    </g>
</svg>