<svg width="95" height="14" xmlns="http://www.w3.org/2000/svg" xmlns:xlink="http://www.w3.org/1999/xlink"><defs><path id="a" d="M.23.058h8.304v8.434H.23z"/></defs><g fill="none" fill-rule="evenodd"><path d="M14.689 8.836c.05.63.543 1.212 1.528 1.212.747 0 1.104-.372 1.104-.792 0-.356-.255-.646-.9-.776l-1.104-.242c-1.613-.34-2.343-1.26-2.343-2.375 0-1.422 1.324-2.601 3.124-2.601 2.378 0 3.176 1.438 3.278 2.294l-1.885.404c-.068-.469-.425-1.067-1.376-1.067-.594 0-1.07.34-1.07.792 0 .388.306.63.765.711l1.189.242c1.647.324 2.48 1.277 2.48 2.44 0 1.293-1.054 2.618-3.245 2.618-2.513 0-3.379-1.552-3.481-2.456l1.936-.404z" fill="#1F77FF"/><g transform="translate(20.402 3.203)"><mask id="b" fill="#fff"><use xlink:href="#a"/></mask><path d="M2.489 4.275c0 1.438.985 2.246 2.14 2.246 1.154 0 1.732-.727 1.919-1.341l1.986.63c-.373 1.325-1.68 2.682-3.905 2.682C2.166 8.492.23 6.715.23 4.275.23 1.82 2.132.058 4.56.058c2.276 0 3.567 1.341 3.924 2.683l-2.021.646c-.204-.663-.73-1.342-1.851-1.342-1.155 0-2.123.792-2.123 2.23" fill="#1F77FF" mask="url(#b)"/></g><path d="M35.898 6.574c-.034-.792-.577-1.567-1.868-1.567-1.172 0-1.817.84-1.868 1.567h3.736zm2.106 2.601c-.425 1.374-1.75 2.52-3.804 2.52-2.293 0-4.314-1.567-4.314-4.249 0-2.536 1.97-4.184 4.11-4.184 2.581 0 4.126 1.567 4.126 4.12 0 .307-.033.63-.033.662H32.11c.051 1.05.985 1.81 2.106 1.81 1.052 0 1.63-.501 1.902-1.212l1.885.533zM42.164 11.453h-2.259V3.504h2.19v.986c.51-.824 1.512-1.196 2.412-1.196 2.072 0 3.023 1.406 3.023 3.15v5.01h-2.258V6.815c0-.888-.46-1.583-1.546-1.583-.985 0-1.562.727-1.562 1.648v4.572zM53.54 9.725c1.155 0 2.056-.84 2.056-2.279 0-1.421-.9-2.213-2.055-2.213-1.155 0-2.072.808-2.072 2.23 0 1.421.883 2.262 2.072 2.262zm4.246.29c0 .534.034 1.115.068 1.438h-2.157a5.27 5.27 0 0 1-.084-.92c-.374.63-1.223 1.114-2.344 1.114-2.377 0-4.076-1.777-4.076-4.185 0-2.326 1.647-4.152 4.008-4.152 1.444 0 2.123.566 2.36.986V.033h2.225v9.982z" fill="#1F77FF"/><path fill="#FFA4A7" d="M10.049 6.8H7.582L5.918 2.472 4.256 6.796H1.87L4.61 0h2.718z"/><path fill="#1F77FF" d="M11.92 11.453H9.372L8.37 8.836H3.48l-1.002 2.617H0l1.876-4.652h8.18z"/><path d="M63.63 3.86h1.14V6.5h.02c.08-.127.177-.24.29-.34.113-.1.238-.185.375-.255a1.962 1.962 0 0 1 .875-.215c.407 0 .762.072 1.065.215a2.1 2.1 0 0 1 .755.59c.2.25.35.542.45.875.1.333.15.69.15 1.07 0 .347-.045.683-.135 1.01-.09.327-.227.615-.41.865a2.05 2.05 0 0 1-.695.6c-.28.15-.61.225-.99.225-.173 0-.348-.012-.525-.035a1.981 1.981 0 0 1-.505-.135 1.73 1.73 0 0 1-.435-.26 1.265 1.265 0 0 1-.325-.42h-.02V11h-1.08V3.86zm3.98 4.56c0-.233-.03-.46-.09-.68-.06-.22-.15-.415-.27-.585-.12-.17-.27-.307-.45-.41a1.223 1.223 0 0 0-.62-.155c-.48 0-.842.167-1.085.5-.243.333-.365.777-.365 1.33 0 .26.032.502.095.725.063.223.158.415.285.575a1.298 1.298 0 0 0 1.07.52c.26 0 .48-.053.66-.16.18-.107.328-.245.445-.415.117-.17.2-.363.25-.58.05-.217.075-.438.075-.665zm1.53-2.59h1.25l1.35 3.86h.02l1.31-3.86h1.19l-2.01 5.45c-.093.233-.185.457-.275.67-.09.213-.2.402-.33.565-.13.163-.292.293-.485.39-.193.097-.44.145-.74.145-.267 0-.53-.02-.79-.06v-.96c.093.013.183.028.27.045.087.017.177.025.27.025a.93.93 0 0 0 .33-.05.546.546 0 0 0 .215-.145.9.9 0 0 0 .145-.225c.04-.087.077-.187.11-.3l.13-.4-1.96-5.15zm8-1.97h1.27l1.29 5.46h.02l1.44-5.46h1.28l1.4 5.46h.02l1.33-5.46h1.27L84.49 11h-1.27l-1.43-5.46h-.02L80.31 11h-1.29l-1.88-7.14zm10.01 0h1.14v1.08h-1.14V3.86zm0 1.97h1.14V11h-1.14V5.83zm3.77 2.45l-1.79-2.45h1.38l1.08 1.59 1.13-1.59h1.32l-1.76 2.39L94.26 11h-1.37l-1.31-1.91L90.31 11h-1.34l1.95-2.72z" fill="#1F77FF" fill-rule="nonzero"/></g></svg>