<?xml version="1.0" encoding="UTF-8"?>
<svg width="150px" height="100px" viewBox="0 0 150 100" version="1.1" xmlns="http://www.w3.org/2000/svg" xmlns:xlink="http://www.w3.org/1999/xlink">
    <!-- Generator: Sketch 52.5 (67469) - http://www.bohemiancoding.com/sketch -->
    <title>AddYourProducts</title>
    <desc>Created with Sketch.</desc>
    <g id="AddYourProducts" stroke="none" stroke-width="1" fill="none" fill-rule="evenodd">
        <g id="Group-65" transform="translate(12.000000, 6.000000)">
            <g id="Group-64">
                <path d="M43.0049,67.248 C43.0049,69.311 41.3169,71 39.2529,71 L16.3599,71 C14.2969,71 12.6079,69.311 12.6079,67.248 L27.9349,64.407 L43.0049,67.248 Z" id="Fill-2" fill="#F8CE20"></path>
                <path d="M13,67.1973 L13,35.2173 C13,33.9973 13.998,33.0003 15.216,33.0003 L41.182,33.0003 C42.4,33.0003 43.397,33.9973 43.397,35.2153 L43.397,67.1973" id="Fill-4" fill="#D8EDFF"></path>
                <path d="M14.5,50.5 C14.5,53.262 12.261,55.5 9.5,55.5 C6.739,55.5 4.5,53.262 4.5,50.5 C4.5,47.738 6.739,45.5 9.5,45.5 C12.261,45.5 14.5,47.738 14.5,50.5 Z" id="Stroke-6" stroke="#D8EDFF" stroke-width="3"></path>
                <path d="M113.4063,48.4619 C115.3783,44.4399 116.3043,40.1469 116.2683,35.9099 C116.2613,35.0949 115.3843,34.5929 114.6783,34.9999 C111.0073,37.1149 107.7743,40.0879 105.3063,43.8259 C105.0033,39.3569 103.6583,35.1759 101.5093,31.5249 C101.0953,30.8219 100.0843,30.8259 99.6763,31.5309 C97.5553,35.1989 96.2423,39.3909 95.9733,43.8609 C93.4763,40.1429 90.2213,37.1939 86.5343,35.1069 C85.8243,34.7049 84.9513,35.2139 84.9503,36.0289 C84.9473,40.2659 85.9063,44.5519 87.9083,48.5589 C83.8863,46.5869 79.5933,45.6609 75.3573,45.6959 C74.5453,45.7029 74.0383,46.5779 74.4443,47.2819 C76.8433,51.4489 80.3453,55.0549 84.8193,57.6159 C89.8293,60.4829 95.3503,61.6349 100.7063,61.2589 C106.0643,61.5939 111.5773,60.3999 116.5643,57.4949 C121.0193,54.8999 124.4933,51.2679 126.8613,47.0829 C127.2613,46.3749 126.7483,45.5039 125.9353,45.5039 C121.6993,45.4999 117.4133,46.4589 113.4063,48.4619" id="Fill-8" fill="#4BAAFF"></path>
                <path d="M100,60 L115.999,60 C117.35,60 118.312,61.312 117.906,62.602 L111.5,82.902 C111.107,84.151 109.949,85 108.64,85 L95,85 L100,60 Z" id="Fill-10" fill="#FFD527"></path>
                <path d="M100,80 L100,60 L82.673,60 L91,85 L95,85 C97.761,85 100,82.762 100,80" id="Fill-12" fill="#F1C719"></path>
                <path d="M91,85 L69,85 L32,65 L32,13 C32,10.238 34.239,8 37,8 L91,8 C93.761,8 96,10.238 96,13 L96,80 C96,82.762 93.761,85 91,85" id="Fill-14" fill="#9ED1FF"></path>
                <polygon id="Fill-16" fill="#1791FF" points="74 15 54 15 49.998 0.998 78.004 0.998"></polygon>
                <polygon id="Fill-18" fill="#75BEFF" points="69 85 58 85 59 82 59 15 69 15"></polygon>
                <path d="M88.3374,46.3662 L82.6744,48.3942 C82.2384,48.5512 81.7614,48.5512 81.3254,48.3942 L75.6624,46.3662 C75.2654,46.2232 75.0004,45.8462 75.0004,45.4252 L75.0004,34.0442 C75.0004,33.4922 75.4474,33.0442 76.0004,33.0442 L88.0004,33.0442 C88.5524,33.0442 89.0004,33.4922 89.0004,34.0442 L89.0004,45.4252 C89.0004,45.8462 88.7344,46.2232 88.3374,46.3662" id="Fill-20" fill="#75BEFF"></path>
                <path d="M64.0054,15.0029 L69.2344,20.2349 C70.2104,21.2129 71.7944,21.2129 72.7704,20.2349 L84.9974,7.9989 L78.0014,0.9959 L64.0054,15.0029 Z" id="Fill-22" fill="#4BAAFF"></path>
                <path d="M63.9951,15.0029 L58.7661,20.2349 C57.7901,21.2129 56.2061,21.2129 55.2291,20.2349 L43.0021,7.9989 L49.9991,0.9959 L63.9951,15.0029 Z" id="Fill-24" fill="#4BAAFF"></path>
                <path d="M52.5,88 C53.325,88 54,87.325 54,86.5 L54,80.5 C54,79.675 53.325,79 52.5,79 C51.675,79 51,79.675 51,80.5 L51,86.5 C51,87.325 51.675,88 52.5,88" id="Fill-26" fill="#1791FF"></path>
                <path d="M46.5,88 C47.325,88 48,87.325 48,86.5 L48,80.5 C48,79.675 47.325,79 46.5,79 C45.675,79 45,79.675 45,80.5 L45,86.5 C45,87.325 45.675,88 46.5,88" id="Fill-28" fill="#1791FF"></path>
                <path d="M40.5,88 C41.325,88 42,87.325 42,86.5 L42,80.5 C42,79.675 41.325,79 40.5,79 C39.675,79 39,79.675 39,80.5 L39,86.5 C39,87.325 39.675,88 40.5,88" id="Fill-30" fill="#1791FF"></path>
                <path d="M21.5,88 C22.325,88 23,87.325 23,86.5 L23,80.5 C23,79.675 22.325,79 21.5,79 C20.675,79 20,79.675 20,80.5 L20,86.5 C20,87.325 20.675,88 21.5,88" id="Fill-32" fill="#1791FF"></path>
                <path d="M15.5,88 C16.325,88 17,87.325 17,86.5 L17,80.5 C17,79.675 16.325,79 15.5,79 C14.675,79 14,79.675 14,80.5 L14,86.5 C14,87.325 14.675,88 15.5,88" id="Fill-34" fill="#1791FF"></path>
                <path d="M9.5,88 C10.325,88 11,87.325 11,86.5 L11,80.5 C11,79.675 10.325,79 9.5,79 C8.675,79 8,79.675 8,80.5 L8,86.5 C8,87.325 8.675,88 9.5,88" id="Fill-36" fill="#1791FF"></path>
                <path d="M1.1372,80.6426 L13.9952,78.5536 L31.1892,78.5536 L61.8782,80.6426 C61.8982,80.7436 61.9292,80.8406 61.9412,80.9426 L61.9362,80.9426 L61.9412,80.9426 C62.1642,82.9236 60.7172,84.9996 58.3382,84.9996 L6.6532,84.9996 C4.0782,84.9996 1.9052,83.2886 1.2042,80.9426 L1.2082,80.9426 L1.2042,80.9426 C1.1752,80.8446 1.1612,80.7426 1.1372,80.6426" id="Fill-38" fill="#4BAAFF"></path>
                <path d="M2.6187,67.8906 L2.7917,66.7196 C3.2137,63.8706 5.6597,61.7616 8.5387,61.7616 L18.5477,61.7616 C20.9257,61.7616 22.8247,59.8536 22.9017,57.4766 C22.9467,56.0706 24.4677,55.2956 25.5917,56.1626 L60.5487,78.5146 C61.3037,79.0976 61.7197,79.8546 61.8777,80.6426 L13.9947,80.6426 C12.9527,74.5316 8.4777,69.5936 2.6187,67.8906" id="Fill-40" fill="#8263F1"></path>
                <path d="M13.9951,80.6426 L1.1371,80.6426 C1.0331,80.2136 0.9641,79.7716 0.9641,79.3106 L2.6191,67.8906 C8.4781,69.5936 12.9531,74.5316 13.9951,80.6426" id="Fill-42" fill="#FFD527"></path>
                <path d="M44.4482,74.5518 C44.2532,74.3578 44.2532,74.0388 44.4482,73.8448 L47.9832,70.3098 C48.1782,70.1148 48.4962,70.1148 48.6902,70.3098 C48.8852,70.5038 48.8852,70.8228 48.6902,71.0168 L45.1552,74.5518 C44.9602,74.7458 44.6422,74.7458 44.4482,74.5518" id="Fill-44" fill="#FFFFFF"></path>
                <path d="M39.5693,71.4307 C39.3753,71.2367 39.3753,70.9177 39.5693,70.7237 L43.1053,67.1877 C43.2993,66.9937 43.6173,66.9937 43.8123,67.1877 C44.0063,67.3817 44.0063,67.7007 43.8123,67.8947 L40.2773,71.4307 C40.0823,71.6247 39.7643,71.6247 39.5693,71.4307" id="Fill-46" fill="#FFFFFF"></path>
                <path d="M34.6777,68.3223 C34.4827,68.1283 34.4827,67.8093 34.6777,67.6153 L38.2127,64.0803 C38.4077,63.8853 38.7257,63.8853 38.9197,64.0803 C39.1147,64.2743 39.1147,64.5933 38.9197,64.7873 L35.3847,68.3223 C35.1897,68.5163 34.8717,68.5163 34.6777,68.3223" id="Fill-48" fill="#FFFFFF"></path>
                <path d="M29.8037,65.1963 C29.6087,65.0023 29.6087,64.6833 29.8037,64.4893 L33.3387,60.9543 C33.5337,60.7593 33.8517,60.7593 34.0467,60.9543 C34.2407,61.1483 34.2407,61.4673 34.0467,61.6613 L30.5107,65.1963 C30.3167,65.3903 29.9977,65.3903 29.8037,65.1963" id="Fill-50" fill="#FFFFFF"></path>
                <path d="M65.499,25.5 C65.499,26.328 64.828,27 64,27 C63.172,27 62.501,26.328 62.501,25.5 C62.501,24.672 63.172,24 64,24 C64.828,24 65.499,24.672 65.499,25.5" id="Fill-52" fill="#4BAAFF"></path>
                <path d="M65.499,35.5 C65.499,36.328 64.828,37 64,37 C63.172,37 62.501,36.328 62.501,35.5 C62.501,34.672 63.172,34 64,34 C64.828,34 65.499,34.672 65.499,35.5" id="Fill-54" fill="#4BAAFF"></path>
                <path d="M65.499,45.5 C65.499,46.328 64.828,47 64,47 C63.172,47 62.501,46.328 62.501,45.5 C62.501,44.672 63.172,44 64,44 C64.828,44 65.499,44.672 65.499,45.5" id="Fill-56" fill="#4BAAFF"></path>
                <path d="M65.499,55.5 C65.499,56.328 64.828,57 64,57 C63.172,57 62.501,56.328 62.501,55.5 C62.501,54.672 63.172,54 64,54 C64.828,54 65.499,54.672 65.499,55.5" id="Fill-58" fill="#4BAAFF"></path>
                <path d="M65.499,65.5 C65.499,66.328 64.828,67 64,67 C63.172,67 62.501,66.328 62.501,65.5 C62.501,64.672 63.172,64 64,64 C64.828,64 65.499,64.672 65.499,65.5" id="Fill-60" fill="#4BAAFF"></path>
                <path d="M65.499,75.5 C65.499,76.328 64.828,77 64,77 C63.172,77 62.501,76.328 62.501,75.5 C62.501,74.672 63.172,74 64,74 C64.828,74 65.499,74.672 65.499,75.5" id="Fill-62" fill="#4BAAFF"></path>
            </g>
        </g>
    </g>
</svg>