<?xml version="1.0" encoding="UTF-8"?>
<svg width="14px" height="14px" viewBox="0 0 14 14" version="1.1" xmlns="http://www.w3.org/2000/svg" xmlns:xlink="http://www.w3.org/1999/xlink">
    <title>info</title>
    <g id="Page-1" stroke="none" stroke-width="1" fill="none" fill-rule="evenodd">
        <g id="info" fill="#000000" fill-rule="nonzero">
            <path d="M7.5,9 L7.5,5.25 L6,5.25 L5.25,6.75 L6,6.75 L6,9 L5.25,9.75 L5.25,10.5 L8.25,10.5 L8.25,9.75 L7.5,9 Z M6,4.5 L7.5,4.5 L7.5,3 L6,3 L6,4.5 Z M6.75,12.75 C3.44175,12.75 0.75,10.05825 0.75,6.75 C0.75,3.44175 3.44175,0.75 6.75,0.75 C10.05825,0.75 12.75,3.44175 12.75,6.75 C12.75,10.05825 10.05825,12.75 6.75,12.75 L6.75,12.75 Z M6.75,0 C3.02175,0 0,3.02175 0,6.75 C0,10.47825 3.02175,13.5 6.75,13.5 C10.47825,13.5 13.5,10.47825 13.5,6.75 C13.5,3.02175 10.47825,0 6.75,0 L6.75,0 Z" id="Shape"></path>
        </g>
    </g>
</svg>