<?xml version="1.0" encoding="UTF-8"?>
<svg width="16px" height="16px" viewBox="0 0 16 16" version="1.1" xmlns="http://www.w3.org/2000/svg" xmlns:xlink="http://www.w3.org/1999/xlink">
    <title>speaker</title>
    <g id="Page-1" stroke="none" stroke-width="1" fill="none" fill-rule="evenodd">
        <g id="speaker" fill="#000000" fill-rule="nonzero">
            <path d="M15.2102633,0.06953261 C15.5246293,-0.03525605 15.8644213,0.13463994 15.96921,0.44900593 L15.9922525,0.54263324 L16,0.63874259 L16,13.3612574 C16,13.6926283 15.7313708,13.9612574 15.4,13.9612574 L15.3038907,13.9535099 L15.2102633,13.9304674 L7.21,11.2625798 L7.8059335,14.835601 C7.8967286,15.3803713 7.5287089,15.8955989 6.9839386,15.9863939 C6.9296071,15.9954492 6.8746204,16 6.8195396,16 L4.84712709,16 C4.35828794,16 3.94109783,15.646587 3.86073316,15.164399 L3.166,10.9995798 L2.5,11 C1.22974508,11 0.18075921,10.0526345 0.02105111,8.8259123 L0.00531768,8.6643757 L0,8.5 L0,5.5 C0,4.1745166 1.03153594,3.08996133 2.33562431,3.00531768 L2.5,3 L6.416,3 L15.2102633,0.06953261 Z M4.84712709,15 L6.8195396,15 L6.152,11 L4.18,11 L4.84712709,15 Z M15,1.193 L7,3.85957981 L7,10 L7.024,10.1475798 L15,12.806 L15,1.193 Z M6,10 L6,3.99957981 L2.5,4 C1.72030388,4 1.07955132,4.59488808 1.00686658,5.35553999 L1,5.5 L1,8.5 C1,9.2796961 1.59488808,9.9204487 2.35553999,9.9931334 L2.5,10 L6,10 Z" id="Shape"></path>
        </g>
    </g>
</svg>